<svg xmlns="http://www.w3.org/2000/svg" xmlns:xlink="http://www.w3.org/1999/xlink" width="100" zoomAndPan="magnify" viewBox="0 0 75 44.999999" height="60" preserveAspectRatio="xMidYMid meet" version="1.0"><defs><filter x="0%" y="0%" width="100%" height="100%" id="5a149ed90f"><feColorMatrix values="0 0 0 0 1 0 0 0 0 1 0 0 0 0 1 0 0 0 1 0" color-interpolation-filters="sRGB"/></filter><g/><mask id="b4160a9055"><g filter="url(#5a149ed90f)"><rect x="-7.5" width="90" fill="#000000" y="-4.5" height="53.999999" fill-opacity="0.38"/></g></mask><clipPath id="113975da6a"><path d="M 0.238281 0.378906 L 36.960938 0.378906 L 36.960938 39.28125 L 0.238281 39.28125 Z M 0.238281 0.378906 " clip-rule="nonzero"/></clipPath><clipPath id="f3d0e71c1b"><rect x="0" width="37" y="0" height="40"/></clipPath></defs><g mask="url(#b4160a9055)"><g transform="matrix(1, 0, 0, 1, 18, 2)"><g clip-path="url(#f3d0e71c1b)"><g clip-path="url(#113975da6a)"><path fill="#b2b9d6" d="M 18.566406 0.378906 C 12.3125 0.535156 6.128906 2.207031 0.585938 5.09375 C 1.199219 11.433594 3.148438 17.621094 6.453125 23.0625 C 7.039062 24.035156 7.667969 24.984375 8.332031 25.902344 C 7.082031 23.902344 6.066406 21.753906 5.328125 19.507812 C 4.011719 15.546875 3.464844 11.324219 3.675781 7.164062 C 8.097656 4.523438 13.148438 2.890625 18.269531 2.328125 C 24.457031 1.648438 30.859375 2.523438 36.578125 4.984375 C 31.019531 2.121094 24.820312 0.5 18.566406 0.378906 Z M 36.578125 4.984375 C 33.878906 4.109375 31.121094 3.472656 28.328125 3.101562 C 19.933594 1.964844 11.296875 3.472656 3.675781 7.164062 C 8.332031 4.976562 13.433594 3.75 18.578125 3.597656 C 23.71875 3.714844 28.828125 4.90625 33.496094 7.066406 C 34.472656 13.59375 33.359375 20.441406 30.359375 26.320312 C 29.144531 28.753906 27.585938 31.039062 25.785156 33.070312 C 23.734375 35.394531 21.339844 37.421875 18.699219 39.039062 C 18.789062 38.988281 19.519531 38.585938 19.859375 38.390625 L 20.398438 38.074219 C 21.796875 37.234375 23.136719 36.300781 24.402344 35.277344 C 33.464844 28.015625 37.648438 16.410156 36.578125 4.984375 Z M 31.929688 19.421875 C 29.867188 25.828125 25.5625 31.449219 19.945312 35.15625 C 19.542969 35.425781 19.105469 35.703125 18.683594 35.960938 C 13.453125 32.945312 9.039062 28.546875 5.90625 23.390625 C 2.574219 17.914062 0.667969 11.503906 0.585938 5.09375 C -0.421875 16.527344 3.851562 28.117188 12.957031 35.3125 C 14.230469 36.328125 15.574219 37.253906 16.976562 38.085938 L 17.519531 38.398438 C 17.882812 38.601562 18.691406 39.042969 18.691406 39.042969 C 19.933594 38.121094 21.125 37.140625 22.246094 36.09375 C 24.765625 33.738281 26.949219 31.023438 28.703125 28.054688 C 32.414062 21.765625 33.988281 14.332031 33.496094 7.066406 C 33.738281 11.226562 33.21875 15.453125 31.929688 19.421875 Z M 31.929688 19.421875 " fill-opacity="1" fill-rule="nonzero"/></g></g></g></g><g fill="#fafafa" fill-opacity="1"><g transform="translate(2.783966, 25.902459)"><g><path d="M 3.9375 -8.140625 L 3.9375 0 L 0.953125 0 L 0.953125 -13.109375 L 3.9375 -13.109375 L 9.15625 -4.96875 L 9.1875 -4.96875 L 9.1875 -13.109375 L 12.171875 -13.109375 L 12.171875 0 L 9.1875 0 L 3.96875 -8.140625 Z M 3.9375 -8.140625 "/></g></g></g><g fill="#fafafa" fill-opacity="1"><g transform="translate(14.41635, 25.902459)"><g><path d="M 9.203125 -3.6875 L 3.296875 -3.6875 C 3.296875 -3.113281 3.476562 -2.6875 3.84375 -2.40625 C 4.21875 -2.132812 4.617188 -2 5.046875 -2 C 5.503906 -2 5.863281 -2.0625 6.125 -2.1875 C 6.394531 -2.3125 6.703125 -2.550781 7.046875 -2.90625 L 9.078125 -1.890625 C 8.222656 -0.472656 6.8125 0.234375 4.84375 0.234375 C 3.613281 0.234375 2.554688 -0.179688 1.671875 -1.015625 C 0.796875 -1.859375 0.359375 -2.875 0.359375 -4.0625 C 0.359375 -5.25 0.796875 -6.265625 1.671875 -7.109375 C 2.554688 -7.960938 3.613281 -8.390625 4.84375 -8.390625 C 6.132812 -8.390625 7.1875 -8.015625 8 -7.265625 C 8.8125 -6.523438 9.21875 -5.457031 9.21875 -4.0625 C 9.21875 -3.875 9.210938 -3.75 9.203125 -3.6875 Z M 3.375 -5.25 L 6.46875 -5.25 C 6.40625 -5.664062 6.238281 -5.988281 5.96875 -6.21875 C 5.695312 -6.445312 5.347656 -6.5625 4.921875 -6.5625 C 4.460938 -6.5625 4.09375 -6.4375 3.8125 -6.1875 C 3.539062 -5.945312 3.394531 -5.632812 3.375 -5.25 Z M 3.375 -5.25 "/></g></g></g><g fill="#fafafa" fill-opacity="1"><g transform="translate(22.50496, 25.902459)"><g><path d="M 1.4375 -8.15625 L 1.4375 -11.1875 L 4.25 -11.1875 L 4.25 -8.15625 L 5.953125 -8.15625 L 5.953125 -6 L 4.25 -6 L 4.25 -3.421875 C 4.25 -2.660156 4.457031 -2.28125 4.875 -2.28125 C 4.976562 -2.28125 5.085938 -2.300781 5.203125 -2.34375 C 5.328125 -2.394531 5.421875 -2.441406 5.484375 -2.484375 L 5.578125 -2.546875 L 6.28125 -0.265625 C 5.675781 0.0664062 4.988281 0.234375 4.21875 0.234375 C 3.6875 0.234375 3.226562 0.144531 2.84375 -0.03125 C 2.457031 -0.21875 2.164062 -0.46875 1.96875 -0.78125 C 1.78125 -1.09375 1.644531 -1.421875 1.5625 -1.765625 C 1.476562 -2.109375 1.4375 -2.476562 1.4375 -2.875 L 1.4375 -6 L 0.25 -6 L 0.25 -8.15625 Z M 1.4375 -8.15625 "/></g></g></g><g fill="#3f5cdd" fill-opacity="1"><g transform="translate(27.289949, 25.902459)"><g><path d="M 0.59375 2 L 2.890625 0.875 C 3.316406 1.570312 4.050781 1.921875 5.09375 1.921875 C 5.582031 1.921875 6.035156 1.765625 6.453125 1.453125 C 6.878906 1.140625 7.09375 0.660156 7.09375 0.015625 L 7.09375 -0.59375 C 6.59375 -0.0390625 5.703125 0.234375 4.421875 0.234375 C 3.242188 0.234375 2.269531 -0.175781 1.5 -1 C 0.738281 -1.832031 0.359375 -2.851562 0.359375 -4.0625 C 0.359375 -5.269531 0.738281 -6.289062 1.5 -7.125 C 2.269531 -7.96875 3.242188 -8.390625 4.421875 -8.390625 C 5.460938 -8.390625 6.335938 -8.066406 7.046875 -7.421875 L 7.09375 -7.421875 L 7.09375 -8.15625 L 9.90625 -8.15625 L 9.90625 0.21875 C 9.90625 1.539062 9.460938 2.5625 8.578125 3.28125 C 7.703125 4.007812 6.539062 4.375 5.09375 4.375 C 2.769531 4.375 1.269531 3.582031 0.59375 2 Z M 3.90625 -5.4375 C 3.539062 -5.082031 3.359375 -4.625 3.359375 -4.0625 C 3.359375 -3.5 3.53125 -3.039062 3.875 -2.6875 C 4.226562 -2.332031 4.691406 -2.15625 5.265625 -2.15625 C 5.816406 -2.15625 6.269531 -2.332031 6.625 -2.6875 C 6.976562 -3.050781 7.15625 -3.507812 7.15625 -4.0625 C 7.15625 -4.625 6.96875 -5.082031 6.59375 -5.4375 C 6.226562 -5.800781 5.785156 -5.984375 5.265625 -5.984375 C 4.722656 -5.984375 4.269531 -5.800781 3.90625 -5.4375 Z M 3.90625 -5.4375 "/></g></g></g><g fill="#3f5cdd" fill-opacity="1"><g transform="translate(36.649868, 25.902459)"><g><path d="M 3.609375 -8.15625 L 3.609375 -4.28125 C 3.609375 -3.46875 3.726562 -2.890625 3.96875 -2.546875 C 4.21875 -2.210938 4.632812 -2.046875 5.21875 -2.046875 C 5.800781 -2.046875 6.210938 -2.210938 6.453125 -2.546875 C 6.691406 -2.890625 6.8125 -3.46875 6.8125 -4.28125 L 6.8125 -8.15625 L 9.625 -8.15625 L 9.625 -3.59375 C 9.625 -2.238281 9.269531 -1.257812 8.5625 -0.65625 C 7.863281 -0.0625 6.742188 0.234375 5.203125 0.234375 C 3.671875 0.234375 2.550781 -0.0625 1.84375 -0.65625 C 1.144531 -1.257812 0.796875 -2.238281 0.796875 -3.59375 L 0.796875 -8.15625 Z M 3.609375 -8.15625 "/></g></g></g><g fill="#3f5cdd" fill-opacity="1"><g transform="translate(45.58072, 25.902459)"><g><path d="M 1.5 -1 C 0.738281 -1.832031 0.359375 -2.851562 0.359375 -4.0625 C 0.359375 -5.269531 0.738281 -6.289062 1.5 -7.125 C 2.269531 -7.96875 3.242188 -8.390625 4.421875 -8.390625 C 5.492188 -8.390625 6.382812 -8.050781 7.09375 -7.375 L 7.09375 -8.15625 L 9.90625 -8.15625 L 9.90625 0 L 7.125 0 L 7.125 -0.921875 L 7.09375 -0.921875 C 6.382812 -0.148438 5.492188 0.234375 4.421875 0.234375 C 3.242188 0.234375 2.269531 -0.175781 1.5 -1 Z M 3.90625 -5.4375 C 3.539062 -5.082031 3.359375 -4.625 3.359375 -4.0625 C 3.359375 -3.5 3.53125 -3.039062 3.875 -2.6875 C 4.226562 -2.332031 4.691406 -2.15625 5.265625 -2.15625 C 5.816406 -2.15625 6.269531 -2.332031 6.625 -2.6875 C 6.976562 -3.050781 7.15625 -3.507812 7.15625 -4.0625 C 7.15625 -4.625 6.96875 -5.082031 6.59375 -5.4375 C 6.226562 -5.800781 5.785156 -5.984375 5.265625 -5.984375 C 4.722656 -5.984375 4.269531 -5.800781 3.90625 -5.4375 Z M 3.90625 -5.4375 "/></g></g></g><g fill="#3f5cdd" fill-opacity="1"><g transform="translate(54.940639, 25.902459)"><g><path d="M 0.953125 0 L 0.953125 -8.15625 L 3.765625 -8.15625 L 3.765625 -6.96875 L 3.796875 -6.96875 C 3.816406 -7.019531 3.847656 -7.078125 3.890625 -7.140625 C 3.941406 -7.203125 4.046875 -7.3125 4.203125 -7.46875 C 4.367188 -7.625 4.539062 -7.765625 4.71875 -7.890625 C 4.894531 -8.023438 5.125 -8.140625 5.40625 -8.234375 C 5.695312 -8.335938 5.992188 -8.390625 6.296875 -8.390625 C 6.597656 -8.390625 6.894531 -8.347656 7.1875 -8.265625 C 7.488281 -8.179688 7.707031 -8.097656 7.84375 -8.015625 L 8.078125 -7.875 L 6.890625 -5.5 C 6.546875 -5.789062 6.0625 -5.9375 5.4375 -5.9375 C 5.09375 -5.9375 4.796875 -5.863281 4.546875 -5.71875 C 4.304688 -5.570312 4.132812 -5.390625 4.03125 -5.171875 C 3.9375 -4.960938 3.867188 -4.785156 3.828125 -4.640625 C 3.785156 -4.492188 3.765625 -4.378906 3.765625 -4.296875 L 3.765625 0 Z M 0.953125 0 "/></g></g></g><g fill="#3f5cdd" fill-opacity="1"><g transform="translate(61.360655, 25.902459)"><g><path d="M 1.5 -1 C 0.738281 -1.832031 0.359375 -2.851562 0.359375 -4.0625 C 0.359375 -5.269531 0.738281 -6.289062 1.5 -7.125 C 2.269531 -7.96875 3.242188 -8.390625 4.421875 -8.390625 C 5.492188 -8.390625 6.382812 -8.050781 7.09375 -7.375 L 7.09375 -13.671875 L 9.90625 -13.671875 L 9.90625 0 L 7.125 0 L 7.125 -0.921875 L 7.09375 -0.921875 C 6.382812 -0.148438 5.492188 0.234375 4.421875 0.234375 C 3.242188 0.234375 2.269531 -0.175781 1.5 -1 Z M 3.90625 -5.4375 C 3.539062 -5.082031 3.359375 -4.625 3.359375 -4.0625 C 3.359375 -3.5 3.53125 -3.039062 3.875 -2.6875 C 4.226562 -2.332031 4.691406 -2.15625 5.265625 -2.15625 C 5.816406 -2.15625 6.269531 -2.332031 6.625 -2.6875 C 6.976562 -3.050781 7.15625 -3.507812 7.15625 -4.0625 C 7.15625 -4.625 6.96875 -5.082031 6.59375 -5.4375 C 6.226562 -5.800781 5.785156 -5.984375 5.265625 -5.984375 C 4.722656 -5.984375 4.269531 -5.800781 3.90625 -5.4375 Z M 3.90625 -5.4375 "/></g></g></g></svg>